<svg width="127" height="38" viewBox="0 0 127 38" fill="none" xmlns="http://www.w3.org/2000/svg">
<path d="M39.5831 37.1926L34.8154 28.197H28.9829L28.6043 27.4052L18.9932 7.27198L15.6762 14.2354L21.0045 19.6129H13.1518L9.46427 27.4011L9.0873 28.197H0.239014V25.414H7.32651L11.014 17.6265L11.3902 16.8307H14.3302L12.3229 14.8049L12.7434 13.9221L17.735 3.44108L18.99 0.807129L20.2465 3.44027L30.7372 25.414H36.49L39.48 31.0564L43.4921 22.8316L44.6609 20.4337L47.4326 25.414H64.0989L64.5041 26.0922L67.5392 31.1748L74.1853 17.6096L74.5671 16.8307H77.4894L75.4507 14.8049L82.2756 0.828876L83.5136 3.4443L93.9125 25.414H126.759V28.197H92.1509L91.7747 27.4011L82.2361 7.25023L78.8249 14.2354L84.2394 19.6129H76.3021L68.9101 34.7029L67.7808 37.0066L66.4663 34.8044L62.5202 28.197H45.7966L44.8236 26.4482L39.5831 37.1926Z" fill="#EC1C24"/>
<path d="M35.6297 11.4205C36.6551 11.965 37.4525 12.7229 38.0196 13.6952C38.5875 14.6674 38.8718 15.7773 38.8718 17.0242C38.8718 18.2711 38.5818 19.3811 38.0019 20.3533C37.4219 21.3255 36.6124 22.0843 35.5749 22.628C34.5367 23.1725 33.3526 23.444 32.0219 23.444H26.692V10.6045H32.1323C33.438 10.6045 34.6043 10.8767 35.6297 11.4205ZM34.1186 20.5007C34.6865 20.1648 35.1287 19.6968 35.4469 19.0976C35.7642 18.4983 35.9229 17.8136 35.9229 17.0428C35.9229 16.2727 35.7546 15.5816 35.4195 14.9702C35.0836 14.3589 34.6253 13.8852 34.0461 13.5486C33.4662 13.2127 32.8097 13.0443 32.0767 13.0443H29.5853V21.0058H32.2048C32.9128 21.005 33.5508 20.8374 34.1186 20.5007Z" fill="white"/>
<path d="M47.4802 23.4448L45.4471 19.7758H45.1725H42.4982V23.4448H39.6041V10.6045H45.1725C46.8455 10.6045 48.1399 10.9927 49.0557 11.7692C49.9716 12.5457 50.4299 13.6436 50.4299 15.0621C50.4299 16.0528 50.2253 16.8994 49.8161 17.6026C49.4069 18.3058 48.8117 18.8406 48.0303 19.2079L50.7593 23.4456H47.4802V23.4448ZM42.4982 17.3545H45.1725C45.9788 17.3545 46.5982 17.1684 47.0315 16.7947C47.4649 16.4217 47.6816 15.8748 47.6816 15.1531C47.6816 14.4443 47.4649 13.9086 47.0315 13.5477C46.5982 13.1869 45.9788 13.0065 45.1725 13.0065H42.4982V17.3545Z" fill="white"/>
<path d="M51.6936 10.6045H61.4561V13.0073H54.5877V15.7959H60.7602V18.1986H54.5877V21.042H61.6583V23.4448H51.6944V10.6045H51.6936Z" fill="white"/>
<path d="M71.6214 10.6045H74.369V23.4448H71.731L65.5223 15.1901V23.4448H62.7562V10.6045H65.3934L71.6214 18.8954V10.6045Z" fill="white"/>
<path d="M89.9833 10.6045H92.8814V20.9131H98.3845V23.4448H89.9833V10.6045Z" fill="white"/>
<path d="M99.4302 10.6045H102.328V23.4448H99.4302V10.6045Z" fill="white"/>
<path d="M112.38 10.6045H115.131V23.4448H112.49L106.272 15.1901V23.4448H103.502V10.6045H106.143L112.38 18.8954V10.6045Z" fill="white"/>
<path d="M126.56 13.0073H119.681V15.7959H125.862V18.1986H119.681V21.042H126.761V23.4448H116.783V10.6045H126.56V13.0073Z" fill="white"/>
</svg>
